<svg aria-hidden="true" style="width:0;height:0;position:absolute;overflow:hidden" xmlns="http://www.w3.org/2000/svg"><defs><symbol id="icon-advantages-heart" viewBox="0 0 28 32"><path d="M6.507.682c-2.81.589-4.991 2.897-5.702 6.037-.261 1.097-.249 3.209.012 4.409.581 2.666 1.873 5.032 3.912 7.087 1.826 1.847 3.426 2.966 5.963 4.132l1.328.623v8.414h1.423v-7.953l.356.104c.202.058.51.058.711 0l.356-.104v7.953h1.423v-8.426l1.268-.577c2.454-1.131 4.232-2.355 5.963-4.109 2.762-2.805 4.173-5.99 4.173-9.453.012-3.797-1.98-6.879-5.109-7.93C21.92.658 21.576.624 20.32.635c-1.316.012-1.612.058-2.608.369-1.174.381-2.324.981-3.082 1.604l-.439.369-.64-.473C11.903 1.292 10.22.703 8.24.623 7.552.6 6.77.623 6.509.681zM9.21 2.113a10.13 10.13 0 0 1 1.529.427c.759.312 2.027 1.108 2.525 1.581.771.727.984.716 1.861-.069 1.375-1.247 3.592-2.101 5.418-2.101 2.478 0 4.742 1.939 5.465 4.675.13.485.249 1.27.261 1.743.047 1.039.012 1.073-1.6 1.685-1.304.496-2.395.739-4.268.946-1.197.139-1.446.208-1.814.473-.759.566-.877.981-.877 3.336 0 1.766-.024 2.101-.202 2.285-.249.277-.688.265-.984-.023-.225-.219-.237-.381-.237-2.712 0-2.585-.071-3.024-.557-3.543-.107-.115-.948-.566-1.861-1.016-1.031-.485-2.063-1.085-2.679-1.558-2.976-2.228-4.292-2.863-6.734-3.243a33.294 33.294 0 0 1-1.316-.231c-.107-.081.533-.9 1.114-1.408 1.375-1.224 2.94-1.616 4.955-1.247zM5.286 6.569c1.209.3 2.573.981 3.817 1.904.522.381 1.186.866 1.482 1.085.794.589 2.11 1.327 3.106 1.743.486.208.948.45 1.031.554.107.127.142.854.142 2.666 0 2.181.036 2.551.225 2.955.391.831 1.02 1.212 1.98 1.212.616 0 1.043-.185 1.494-.658.51-.519.569-.843.569-3.047 0-2.505-.024-2.459 1.375-2.574 1.423-.127 3.189-.508 4.363-.935.593-.219 1.103-.369 1.126-.335.13.127-.759 2.389-1.28 3.266-.83 1.42-1.482 2.228-2.739 3.405-1.826 1.708-4.339 3.174-6.9 4.051l-.925.323-.913-.323c-2.739-.923-5.157-2.389-7.101-4.271-2.466-2.366-3.758-4.871-4.078-7.837-.119-1.108.059-3.013.332-3.463.095-.162 1.79.012 2.893.277z"/><path stroke-width=".615" d="M6.507.682c-2.81.589-4.991 2.897-5.702 6.037-.261 1.097-.249 3.209.012 4.409.581 2.666 1.873 5.032 3.912 7.087 1.826 1.847 3.426 2.966 5.963 4.132l1.328.623v8.414h1.423v-7.953l.356.104c.202.058.51.058.711 0l.356-.104v7.953h1.423v-8.426l1.268-.577c2.454-1.131 4.232-2.355 5.963-4.109 2.762-2.805 4.173-5.99 4.173-9.453.012-3.797-1.98-6.879-5.109-7.93C21.92.658 21.576.624 20.32.635c-1.316.012-1.612.058-2.608.369-1.174.381-2.324.981-3.082 1.604l-.439.369-.64-.473C11.903 1.292 10.22.703 8.24.623 7.552.6 6.77.623 6.509.681zM9.21 2.113a10.13 10.13 0 0 1 1.529.427c.759.312 2.027 1.108 2.525 1.581.771.727.984.716 1.861-.069 1.375-1.247 3.592-2.101 5.418-2.101 2.478 0 4.742 1.939 5.465 4.675.13.485.249 1.27.261 1.743.047 1.039.012 1.073-1.6 1.685-1.304.496-2.395.739-4.268.946-1.197.139-1.446.208-1.814.473-.759.566-.877.981-.877 3.336 0 1.766-.024 2.101-.202 2.285-.249.277-.688.265-.984-.023-.225-.219-.237-.381-.237-2.712 0-2.585-.071-3.024-.557-3.543-.107-.115-.948-.566-1.861-1.016-1.031-.485-2.063-1.085-2.679-1.558-2.976-2.228-4.292-2.863-6.734-3.243a33.294 33.294 0 0 1-1.316-.231c-.107-.081.533-.9 1.114-1.408 1.375-1.224 2.94-1.616 4.955-1.247zM5.286 6.569c1.209.3 2.573.981 3.817 1.904.522.381 1.186.866 1.482 1.085.794.589 2.11 1.327 3.106 1.743.486.208.948.45 1.031.554.107.127.142.854.142 2.666 0 2.181.036 2.551.225 2.955.391.831 1.02 1.212 1.98 1.212.616 0 1.043-.185 1.494-.658.51-.519.569-.843.569-3.047 0-2.505-.024-2.459 1.375-2.574 1.423-.127 3.189-.508 4.363-.935.593-.219 1.103-.369 1.126-.335.13.127-.759 2.389-1.28 3.266-.83 1.42-1.482 2.228-2.739 3.405-1.826 1.708-4.339 3.174-6.9 4.051l-.925.323-.913-.323c-2.739-.923-5.157-2.389-7.101-4.271-2.466-2.366-3.758-4.871-4.078-7.837-.119-1.108.059-3.013.332-3.463.095-.162 1.79.012 2.893.277z"/></symbol><symbol id="icon-advantages-sun" viewBox="0 0 21 32"><path d="M2.333.144c-.35.187-.553.563-.553 1.006.006.813.209 1.556.614 2.2l.178.294-.338.381c-.381.425-.473.581-.645 1.087-.141.412-.153 1.162-.031 1.581.43 1.438 1.854 2.269 3.248 1.9.473-.125.761-.281 1.203-.656l.375-.313.35.175c.196.1.528.244.743.325l.381.138v.7c0 1.106.227 1.762.81 2.356s1.498.9 2.29.762c.565-.1 1.117-.381 1.492-.762.583-.594.81-1.25.81-2.356v-.7l.387-.138c.209-.081.54-.225.737-.325l.35-.175.375.313c.442.375.731.531 1.203.656 1.394.369 2.818-.463 3.248-1.9.123-.419.111-1.169-.031-1.581-.172-.506-.264-.662-.645-1.087l-.338-.381.178-.294c.405-.644.608-1.387.614-2.2 0-.444-.203-.819-.553-1.006L18.521 0H2.595l-.264.144zM17.068 2.1c0 .019-.178.313-.399.663-.651 1.031-.626 1.256.239 2.169.313.331.602.662.645.737.233.463-.233 1.037-.749.919-.123-.025-.393-.244-.786-.631-.786-.775-1.056-.862-1.658-.519-.694.4-1.578.806-2.008.925-.608.175-.817.306-.976.638-.129.256-.141.362-.141 1.362 0 1.231-.049 1.431-.399 1.6-.252.125-.301.125-.553 0-.35-.169-.399-.369-.399-1.6 0-1-.012-1.106-.135-1.362-.166-.325-.375-.462-.982-.638-.528-.15-1.308-.494-1.738-.775-.405-.263-.761-.362-1.044-.313-.184.037-.368.181-.86.662-.405.394-.694.625-.817.65-.51.119-.976-.463-.743-.919.043-.075.332-.406.645-.737.866-.912.89-1.138.239-2.169-.221-.35-.399-.644-.399-.663 0-.025 2.929-.038 6.508-.038s6.508.013 6.508.038zM.485 13.206c-.313.212-.485.512-.485.844 0 .225 3.119 16.925 3.229 17.275.055.194.282.425.522.55.227.125.387.125 6.809.125s6.582 0 6.809-.125c.239-.125.467-.356.522-.55.11-.35 3.229-17.05 3.229-17.275 0-.331-.172-.631-.485-.844l-.209-.144H.694l-.209.144zm18.21 2.275c-.061.5-.418 1.587-.682 2.081-1.283 2.375-3.714 3.819-6.729 3.988-2.278.131-4.206-.331-5.82-1.394a7 7 0 0 1-2.265-2.438c-.307-.544-.712-1.712-.774-2.237l-.043-.356h16.356l-.043.356zM4.39 21.919c2.634 1.775 6.569 2.244 9.885 1.169a10.688 10.688 0 0 0 3.18-1.688c.276-.219.295-.219.264-.081-.018.081-.381 1.994-.804 4.244s-.78 4.156-.798 4.231l-.031.144H5.035l-.031-.144c-.018-.075-.375-1.981-.798-4.231s-.786-4.163-.804-4.244c-.031-.137-.012-.137.264.081.16.125.491.356.724.519z"/></symbol><symbol id="icon-advantages-cherries" viewBox="0 0 32 32"><path d="M29.528 21.41c-1.292-.458-2.382-.344-3.242.018.145-.877.47-1.832 1.17-2.481a1.065 1.065 0 0 0-1.449-1.561c-1.229 1.14-1.706 2.748-1.874 4.081a4.036 4.036 0 0 0-1.058-.311l1.89-9.83a1.065 1.065 0 0 0-1.046-1.266h-.204c.094-.5.141-.997.137-1.47-.016-1.994-.903-3.495-2.374-4.017-1.41-.5-2.59-.35-3.507.066.145-.976.494-2.063 1.282-2.794A1.065 1.065 0 0 0 17.804.284c-1.32 1.225-1.815 2.965-1.982 4.386-.735-.348-1.644-.527-2.708-.33-1.094-1.571-2.613-2.296-4.089-1.942-1.451.349-2.358 1.115-2.901 1.962-.41-.899-.712-2.001-.452-3.036A1.065 1.065 0 0 0 3.607.805c-.439 1.746.095 3.476.729 4.758-1.016.137-2.117.65-3.049 1.866-.578.755-.773 1.698-.596 2.7a1.065 1.065 0 0 0-.674 1.197l3.809 19.81c.096.501.535.864 1.046.864h15.237c.511 0 .949-.362 1.046-.864l.037-.195c.287.198.596.363.927.487 1.266.471 2.447.278 3.044.118.316.085.795.179 1.364.179.506 0 1.084-.075 1.68-.297 2.361-.879 3.615-3.839 3.596-6.178-.015-1.904-.866-3.339-2.276-3.839zm-6.951-9.22c-.49 4.705-4.452 7.909-9.971 7.909s-9.481-3.204-9.971-7.91h19.942zm-6.643-4.675a1.047 1.047 0 0 0 1.86 0c.029-.048.29-.466.769-.777.629-.408 1.35-.46 2.203-.157.851.302.952 1.518.956 2.027.004.464-.064.962-.191 1.453h-7.126c.236-1.189.094-2.492-.289-3.669a2.12 2.12 0 0 1 1.047.346c.479.311.74.729.769.777zM2.98 8.724c.55-.719 1.182-1.068 1.932-1.069h.002c.57 0 1.016.208 1.066.232a1.05 1.05 0 0 0 1.079-.037c.331-.211.51-.591.481-.983-.006-.077-.115-1.893 1.983-2.397.876-.211 1.625.754 1.906 1.178.807 1.22 1.221 3.108.777 4.413H2.857c-.141-.443-.179-.943.122-1.336zM5.754 29.87 3.643 18.892c.138.133.281.263.427.389 2.208 1.901 5.239 2.948 8.535 2.948s6.328-1.047 8.535-2.948c.052-.044.102-.09.152-.135l-.431 2.243c-.02.007-.041.013-.061.021-1.41.5-2.261 1.935-2.276 3.839-.009 1.164.297 2.483.898 3.622l-.192.999H5.753zm21.711-.438c-.943.351-1.881.017-1.916.005a1.04 1.04 0 0 0-.768 0c-.009.004-.96.352-1.917-.004-1.338-.498-2.223-2.556-2.21-4.165.004-.466.095-1.578.858-1.849.349-.124.661-.175.939-.175 1.107 0 1.657.812 1.782 1.024a1.047 1.047 0 0 0 1.862 0c.156-.266.977-1.468 2.721-.849.763.271.854 1.383.858 1.849.013 1.609-.872 3.667-2.21 4.165z"/></symbol><symbol id="icon-quotes" viewBox="0 0 43 32"><path d="M32.014 0c1.929 0 3.75.52 5.464 1.561s3.107 2.537 4.179 4.488C42.686 8 43.2 10.298 43.2 12.943s-.643 5.225-1.929 7.74c-.429.911-1.2 2.081-2.314 3.512a63.368 63.368 0 0 1-3.214 3.707L31.693 32 28.8 27.187a22.03 22.03 0 0 0 5.336-4.683c1.543-1.821 2.314-3.491 2.314-5.008 0-.78-.171-1.409-.514-1.886a8.359 8.359 0 0 1-5.014 1.626c-1.329 0-2.593-.412-3.793-1.236a8.555 8.555 0 0 1-2.957-3.122c-.771-1.258-1.157-2.558-1.157-3.902 0-1.518.45-2.97 1.35-4.358a10.222 10.222 0 0 1 3.407-3.382C29.143.412 30.558 0 32.015 0zM8.936 0c1.929 0 3.75.52 5.464 1.561s3.107 2.537 4.179 4.488c1.029 1.951 1.543 4.249 1.543 6.894 0 1.864-.236 3.534-.707 5.008-.471 1.518-1.286 3.1-2.443 4.748-1.114 1.561-2.164 2.862-3.15 3.902-.986 1.084-2.7 2.884-5.143 5.398l-2.893-4.813a22.03 22.03 0 0 0 5.336-4.683c1.543-1.821 2.314-3.491 2.314-5.008 0-.78-.171-1.409-.514-1.886a8.359 8.359 0 0 1-5.014 1.626c-1.329 0-2.593-.412-3.793-1.236a8.555 8.555 0 0 1-2.957-3.122C.387 11.619.001 10.319.001 8.975c0-1.518.429-2.97 1.286-4.358S3.28 2.102 4.694 1.235C6.065.411 7.48-.001 8.937-.001z"/></symbol><symbol id="icon-facebook" viewBox="0 0 16 32"><path fill="#fff" style="fill:var(--color1,#fff)" d="M14.143 15.972h-4.034v14.865H3.997V15.972H1.09v-5.224h2.907V7.367c0-2.418 1.142-6.203 6.166-6.203l4.527.019v5.071h-3.285c-.539 0-1.296.271-1.296 1.424v3.075h4.567l-.534 5.219z"/></symbol><symbol id="icon-github" viewBox="0 0 32 32"><path fill="#fff" style="fill:var(--color1,#fff)" d="M16 0C7.212 0 0 7.212 0 16c0 7.499 5.262 14.312 12.25 16v-5.293c-.692.152-1.33.156-2.034-.052-.946-.279-1.714-.909-2.284-1.869-.364-.613-1.008-1.278-1.68-1.23l-.165-1.868c1.453-.124 2.711.886 3.457 2.14.332.558.713.884 1.203 1.029.473.14.982.072 1.574-.137.149-1.186.692-1.63 1.102-2.255v-.001c-4.167-.622-5.828-2.832-6.488-4.578-.874-2.317-.405-5.212 1.14-7.041.03-.036.084-.129.063-.194-.708-2.139.155-3.909.187-4.097.817.242.95-.243 3.551 1.337l.449.27c.188.112.129.048.317.034A13.544 13.544 0 0 1 16 7.723c1.136.015 2.273.178 3.404.484l.145.015c-.013-.002.04-.009.127-.062 3.248-1.968 3.132-1.324 4.003-1.608.032.188.883 1.987.182 4.099-.095.291 2.816 2.956 1.203 7.235-.659 1.746-2.32 3.957-6.487 4.578v.001c.534.814 1.176 1.247 1.173 2.927V32C26.738 30.312 32 23.499 32 16c0-8.788-7.212-16-16-16z"/></symbol><symbol id="icon-telegram" viewBox="0 0 44 32"><path fill="#fff" style="fill:var(--color1,#fff)" d="m17.343 21.048-.675 8.86c.966 0 1.384-.387 1.885-.852l4.527-4.038 9.381 6.412c1.721.895 2.933.424 3.397-1.477l6.159-26.93c.546-2.374-.92-3.302-2.596-2.72L3.227 13.236c-2.47.895-2.433 2.18-.42 2.762l9.253 2.686L33.554 6.132c1.012-.625 1.931-.279 1.175.346l-17.386 14.57z"/></symbol><symbol id="icon-right-arrow-point" viewBox="0 0 26 32"><path stroke-linejoin="round" stroke-linecap="round" stroke-width="6.4" d="M5.172 3.2 19.341 16 5.172 28.8"/></symbol><symbol id="icon-house" viewBox="0 0 35 32"><path d="M32.64 15.401a1.541 1.541 0 0 0-.129-2.225L17.739.426c-.671-.578-1.745-.566-2.402.027L.515 13.856a1.532 1.532 0 0 0-.071 2.222l.372.382c.617.633 1.613.708 2.224.168l1.108-.979v14.326c0 .879.722 1.591 1.612 1.591h5.778c.89 0 1.612-.712 1.612-1.591V19.952h7.37v10.023c-.013.878.624 1.59 1.515 1.59h6.123c.89 0 1.613-.711 1.613-1.59V15.851l.683.592c.377.328 1.168.065 1.767-.586l.42-.455z"/></symbol><symbol id="icon-arrow-right" viewBox="0 0 32 32"><path d="m19.414 27.414 10-10a2 2 0 0 0 0-2.828l-10-10a2 2 0 1 0-2.828 2.828L23.172 14H4a2 2 0 1 0 0 4h19.172l-6.586 6.586c-.39.39-.586.902-.586 1.414s.195 1.024.586 1.414a2 2 0 0 0 2.828 0z"/></symbol><symbol id="icon-three-dots" viewBox="0 0 139 32"><path fill="#fff" style="fill:var(--color1,#fff)" d="M85.333 16c0 8.837-7.163 16-16 16s-16-7.163-16-16 7.163-16 16-16 16 7.163 16 16zM32 16c0 8.837-7.163 16-16 16S0 24.837 0 16 7.163 0 16 0s16 7.163 16 16zM138.667 16c0 8.837-7.163 16-16 16s-16-7.163-16-16 7.163-16 16-16 16 7.163 16 16z"/></symbol><symbol id="icon-burger" viewBox="0 0 46 32"><path fill="none" stroke="#d41443" style="stroke:var(--color1,#d41443)" stroke-width="2.286" d="M0 2.286h45.714M0 16h45.714M0 29.714h45.714"/></symbol><symbol id="icon-chevron" viewBox="0 0 22 32"><path stroke-linejoin="round" stroke-linecap="round" stroke-width="6.4" d="M5.041 3.2 18.265 16 5.041 28.8"/></symbol><symbol id="icon-close" viewBox="0 0 32 32"><path fill="none" stroke="#fff" style="stroke:var(--color1,#fff)" stroke-width="2" d="m2.518 2 26.963 28M2 29.481 30 2.518"/></symbol><symbol id="icon-single-dot" viewBox="0 0 35 32"><path d="M33.053 16c0 8.837-7.163 16-16 16s-16-7.163-16-16 7.163-16 16-16 16 7.163 16 16z"/></symbol><symbol id="icon-person" viewBox="0 0 32 32"><path d="M16 16c4.42 0 8-3.58 8-8s-3.58-8-8-8-8 3.58-8 8 3.58 8 8 8zm0 4c-5.34 0-16 2.68-16 8v2c0 1.1.9 2 2 2h28c1.1 0 2-.9 2-2v-2c0-5.32-10.66-8-16-8z"/></symbol><symbol id="icon-phone" viewBox="0 0 32 32"><path d="m27.419 20.852-4.202-.48a3.294 3.294 0 0 0-2.713.943l-3.044 3.044A24.888 24.888 0 0 1 6.559 13.458l3.06-3.06a3.293 3.293 0 0 0 .943-2.713l-.48-4.168A3.31 3.31 0 0 0 6.79.589H3.928C2.059.589.504 2.144.62 4.013c.877 14.126 12.174 25.408 26.284 26.284 1.869.116 3.424-1.439 3.424-3.308v-2.861c.016-1.671-1.241-3.077-2.911-3.275z"/></symbol><symbol id="icon-email" viewBox="0 0 43 32"><path d="M37.333 0h-32c-2.2 0-3.98 1.8-3.98 4l-.02 24c0 2.2 1.8 4 4 4h32c2.2 0 4-1.8 4-4V4c0-2.2-1.8-4-4-4zm-.8 8.5-14.14 8.84c-.64.4-1.48.4-2.12 0L6.133 8.5c-.5-.32-.8-.86-.8-1.44 0-1.34 1.46-2.14 2.6-1.44l13.4 8.38 13.4-8.38c1.14-.7 2.6.1 2.6 1.44 0 .58-.3 1.12-.8 1.44z"/></symbol><symbol id="icon-checkbox" viewBox="0 0 34 32"><path d="M30.341 3.556v24.889H3.793V3.556h26.548zm0-3.556H3.793C1.707 0 0 1.6 0 3.556v24.889c0 1.956 1.707 3.556 3.793 3.556h26.548c2.086 0 3.793-1.6 3.793-3.556V3.556C34.134 1.6 32.427 0 30.341 0z"/></symbol><symbol id="icon-checkmark" viewBox="0 0 42 32"><path fill="#ffb8ca" style="fill:var(--color1,#ffb8ca);stroke:var(--color1,#ffb8ca)" stroke="#ffb8ca" stroke-width=".64" d="m6.263 15.205-.22-.21-3.307 3.132 11.651 11.114L38.864 5.89l-3.285-3.134-21.192 20.197-8.124-7.75z"/></symbol><symbol id="icon-close-1" viewBox="0 0 32 32"><path d="m26.667 7.303-1.97-1.97-7.808 7.808-7.808-7.808-1.97 1.97 7.808 7.808-7.808 7.808 1.97 1.97 7.808-7.808 7.808 7.808 1.97-1.97-7.808-7.808 7.808-7.808z"/></symbol></defs></svg>